# xmcd CD database file
#
# Track frame offsets:
#	150
#	19962
#	40505
#	72742
#	92087
#	121340
#	144100
#	174075
#
# Disc length: 2586 seconds
#
# Revision: 4
# Processed by: cddbd v1.5.2PL0 Copyright (c) Steve Scherf et al.
# Submitted via: CDex 1.70beta3
#
DISCID=610a1808
DTITLE=trf - BILLIONAIRE - BOY MEETS GIRL
DYEAR=1994
DGENRE=Euro-Techno
TTITLE0=BILLIONAIRE (ORIGINAL SUMMER '94 MIX)
TTITLE1=Le Bleu (GRAND BLEU DANCE)
TTITLE2=BOY MEETS GIRL (12'' CLUB MIX)
TTITLE3=Sexual in Gravure (JAZZY GROOVE MIX)
TTITLE4=TRUTH 94 (UNPLUGGED STYLE MIX)
TTITLE5=KOOL LOVERS SENTIMENTAL (MEANING OF 3 MIX)
TTITLE6=survival dAnce (12'' REMIX)
TTITLE7=BILLIONAIRE (CLUB BEATMASTER MIX)
EXTD=YEAR: 1994
EXTT0=
EXTT1=
EXTT2=
EXTT3=
EXTT4=
EXTT5=
EXTT6=
EXTT7=
PLAYORDER=
